<svg width="103" height="100" viewBox="0 0 103 100" fill="none" xmlns="http://www.w3.org/2000/svg">
<path d="M87.2508 8.55458C80.5834 4.65172 73.4543 1.81529 66.0011 0.200195C65.0857 2.27069 64.0164 5.05554 63.2791 7.27088C55.3561 5.78015 47.5059 5.78015 39.7286 7.27088C38.9915 5.05554 37.8978 2.27069 36.9743 0.200195C29.513 1.81529 22.3757 4.66215 15.7083 8.57525C2.26018 34.0004 -1.3854 58.794 0.437392 83.2355C9.35691 91.5691 18.001 96.6314 26.4992 99.9441C28.5975 96.3311 30.4688 92.4905 32.081 88.4427C29.0106 86.9831 26.0699 85.1818 23.2912 83.0907C24.0284 82.4074 24.7494 81.693 25.4461 80.958C42.3939 90.8755 60.8082 90.8755 77.5536 80.958C78.2584 81.693 78.9793 82.4074 79.7085 83.0907C76.9216 85.1921 73.9728 86.9934 70.9024 88.4532C72.5146 92.4905 74.3779 96.3416 76.4842 99.9544C84.9906 96.6417 93.6427 91.5795 102.562 83.2355C104.701 54.9015 98.9086 30.3356 87.2508 8.55458ZM34.3899 68.2042C29.3023 68.2042 25.1301 62.2619 25.1301 55.0257C25.1301 47.7895 29.2132 41.837 34.3899 41.837C39.5667 41.837 43.7388 47.7791 43.6497 55.0257C43.6577 62.2619 39.5667 68.2042 34.3899 68.2042ZM68.6098 68.2042C63.5222 68.2042 59.35 62.2619 59.35 55.0257C59.35 47.7895 63.433 41.837 68.6098 41.837C73.7864 41.837 77.9587 47.7791 77.8696 55.0257C77.8696 62.2619 73.7864 68.2042 68.6098 68.2042Z" fill="#D4D0CB"/>
</svg>
