<svg width="120" height="81" viewBox="0 0 120 81" fill="none" xmlns="http://www.w3.org/2000/svg">
<path d="M104.513 0.208008H14.5424C6.52408 0.208008 0 6.71605 0 14.7147V66.3279C0 74.3265 6.52408 80.8345 14.5424 80.8345H104.513C112.532 80.8345 119.056 74.3265 119.056 66.3279V14.7162C119.057 6.71605 112.533 0.208008 104.513 0.208008ZM97.4073 9.67196L59.5279 34.0164L21.6484 9.67196H97.4073ZM104.513 71.3721H14.5424C11.7547 71.3721 9.48727 69.1087 9.48727 66.3294V14.9844L56.601 45.2059C56.6643 45.2453 56.7323 45.2722 56.7971 45.3084C56.8651 45.3463 56.9347 45.3826 57.0042 45.4173C57.3695 45.605 57.7458 45.7564 58.1301 45.8558C58.1696 45.8668 58.2091 45.8715 58.2487 45.881C58.6708 45.9804 59.0978 46.0419 59.5247 46.0419H59.5279C59.531 46.0419 59.5342 46.0419 59.5342 46.0419C59.9611 46.0419 60.388 45.982 60.8102 45.881C60.8497 45.8715 60.8893 45.8668 60.9288 45.8558C61.313 45.7564 61.6878 45.605 62.0546 45.4173C62.1242 45.3826 62.1938 45.3463 62.2618 45.3084C62.3266 45.2722 62.3946 45.2453 62.4578 45.2059L109.572 14.9844V66.3279C109.57 69.1087 107.301 71.3721 104.513 71.3721Z" fill="#D4D0CB"/>
</svg>
