<svg width="50" height="100" viewBox="0 0 50 100" fill="none" xmlns="http://www.w3.org/2000/svg">
<path d="M1.59647 53.3849H12.4464V98.4011C12.4464 99.2899 13.161 100.01 14.0429 100.01H32.4394C33.3213 100.01 34.0359 99.2899 34.0359 98.4011V53.597H46.5088C47.3198 53.597 48.0022 52.9837 48.0948 52.1718L49.9891 35.5991C50.0412 35.1431 49.8978 34.6865 49.5951 34.3444C49.2921 34.0021 48.8585 33.8061 48.4035 33.8061H34.0365V23.4175C34.0365 20.2859 35.7096 18.6978 39.0099 18.6978C39.4802 18.6978 48.4035 18.6978 48.4035 18.6978C49.2854 18.6978 50 17.9774 50 17.0889V1.8767C50 0.987926 49.2854 0.267766 48.4035 0.267766H35.4577C35.3664 0.26326 35.1636 0.255859 34.8648 0.255859C32.6185 0.255859 24.8108 0.700248 18.6433 6.41841C11.8098 12.7551 12.7597 20.3422 12.9867 21.6576V33.8058H1.59647C0.714582 33.8058 0 34.5259 0 35.4147V51.7757C0 52.6644 0.714582 53.3849 1.59647 53.3849Z" fill="#D4D0CB"/>
</svg>
