<svg width="196" height="196" viewBox="0 0 196 196" fill="none" xmlns="http://www.w3.org/2000/svg">
<g clip-path="url(#clip0_3_15)">
<g clip-path="url(#clip1_3_15)">
<ellipse cx="96.1608" cy="118.028" rx="35.1053" ry="12.8261" fill="#5805F2"/>
<path d="M156.706 78.0207C156.706 127.869 126.378 122.787 95.319 122.787C64.2601 122.787 38.3862 128.152 38.3862 78.0207C38.3862 27.8896 66.7829 16.8438 97.546 16.8438C128.309 16.8438 156.706 28.1728 156.706 78.0207Z" fill="#5805F2"/>
<path d="M83.6436 45.1667C83.6436 49.9816 79.5025 57.6287 74.1781 57.6287C69.1495 57.6287 64.7125 50.2648 64.7125 45.1667C64.7125 40.3519 68.8537 36.1035 74.1781 36.1035C79.2067 36.1035 83.6436 40.0686 83.6436 45.1667Z" fill="black"/>
<path d="M74.1781 50.2647C77.1187 50.2647 79.5025 47.9822 79.5025 45.1666C79.5025 42.351 77.1187 40.0685 74.1781 40.0685C71.2375 40.0685 68.8537 42.351 68.8537 45.1666C68.8537 47.9822 71.2375 50.2647 74.1781 50.2647Z" fill="black"/>
<path d="M70.0371 44.3167C71.8342 44.3167 73.2909 42.9219 73.2909 41.2012C73.2909 39.4806 71.8342 38.0858 70.0371 38.0858C68.2401 38.0858 66.7834 39.4806 66.7834 41.2012C66.7834 42.9219 68.2401 44.3167 70.0371 44.3167Z" fill="#EBFFFD"/>
<path d="M79.5026 51.1145C80.3195 51.1145 80.9816 50.4805 80.9816 49.6984C80.9816 48.9163 80.3195 48.2822 79.5026 48.2822C78.6858 48.2822 78.0237 48.9163 78.0237 49.6984C78.0237 50.4805 78.6858 51.1145 79.5026 51.1145Z" fill="#EBFFFD"/>
<path d="M130.38 45.1667C130.38 49.9816 126.239 57.6287 120.914 57.6287C115.886 57.6287 111.449 50.2648 111.449 45.1667C111.449 40.3519 115.59 36.1035 120.914 36.1035C126.239 36.1035 130.38 40.0686 130.38 45.1667Z" fill="black"/>
<path d="M120.914 50.2647C123.855 50.2647 126.239 47.9822 126.239 45.1666C126.239 42.351 123.855 40.0685 120.914 40.0685C117.974 40.0685 115.59 42.351 115.59 45.1666C115.59 47.9822 117.974 50.2647 120.914 50.2647Z" fill="black"/>
<path d="M116.773 44.3167C118.57 44.3167 120.027 42.9219 120.027 41.2012C120.027 39.4806 118.57 38.0858 116.773 38.0858C114.976 38.0858 113.52 39.4806 113.52 41.2012C113.52 42.9219 114.976 44.3167 116.773 44.3167Z" fill="#EBFFFD"/>
<path d="M126.239 51.1145C127.056 51.1145 127.718 50.4805 127.718 49.6984C127.718 48.9163 127.056 48.2822 126.239 48.2822C125.422 48.2822 124.76 48.9163 124.76 49.6984C124.76 50.4805 125.422 51.1145 126.239 51.1145Z" fill="#EBFFFD"/>
<path d="M97.5465 74.6219C100.814 74.6219 103.463 72.0858 103.463 68.9574C103.463 65.8289 100.814 63.2928 97.5465 63.2928C94.2792 63.2928 91.6306 65.8289 91.6306 68.9574C91.6306 72.0858 94.2792 74.6219 97.5465 74.6219Z" fill="#14103D"/>
<path d="M38.6823 78.3039L38.3865 77.7374C38.3865 78.0207 38.0907 78.0207 38.0907 78.3039C38.0907 106.167 42.7606 136.29 55.9742 156.031C60.1314 160.781 65.8229 166.957 67.6706 161.731V154.517V144.63V122.303V87.9336L56.726 78.3039H38.6823Z" fill="#5805F2"/>
<path d="M44.8804 90.6664C44.2359 82.8693 41.4691 76.7187 38.7005 76.9285C35.9319 77.1383 34.2099 83.6291 34.8544 91.4262C35.4989 99.2232 38.2658 105.374 41.0344 105.164C43.803 104.954 45.5249 98.4634 44.8804 90.6664Z" fill="#5805F2"/>
<path d="M150.373 90.7502C149.729 98.5472 151.45 105.038 154.219 105.248C156.988 105.458 159.755 99.307 160.399 91.51C161.044 83.713 159.322 77.2221 156.553 77.0123C153.784 76.8025 151.018 82.9532 150.373 90.7502Z" fill="#5805F2"/>
<path d="M154.731 78.2189L155.008 77.6494C155.008 77.9341 155.285 77.9341 155.285 78.2189C155.285 106.235 151.037 136.182 138.656 156.031C136.879 158.881 129.302 167.358 127.57 162.104V154.851V144.909V87.9015L137.825 78.2189H154.731Z" fill="#5805F2"/>
<ellipse cx="96.1608" cy="118.028" rx="35.1053" ry="12.8261" fill="#5805F2"/>
<path d="M156.706 78.0207C156.706 127.869 126.378 122.787 95.319 122.787C64.2601 122.787 38.3862 128.152 38.3862 78.0207C38.3862 27.8896 66.7829 16.8438 97.546 16.8438C128.309 16.8438 156.706 28.1728 156.706 78.0207Z" fill="#5805F2"/>
<path d="M83.6436 45.1667C83.6436 49.9816 79.5025 57.6287 74.1781 57.6287C69.1495 57.6287 64.7125 50.2648 64.7125 45.1667C64.7125 40.3519 68.8537 36.1035 74.1781 36.1035C79.2067 36.1035 83.6436 40.0686 83.6436 45.1667Z" fill="black"/>
<path d="M74.1781 50.2647C77.1187 50.2647 79.5025 47.9822 79.5025 45.1666C79.5025 42.351 77.1187 40.0685 74.1781 40.0685C71.2375 40.0685 68.8537 42.351 68.8537 45.1666C68.8537 47.9822 71.2375 50.2647 74.1781 50.2647Z" fill="black"/>
<path d="M70.0371 44.3167C71.8342 44.3167 73.2909 42.9219 73.2909 41.2012C73.2909 39.4806 71.8342 38.0858 70.0371 38.0858C68.2401 38.0858 66.7834 39.4806 66.7834 41.2012C66.7834 42.9219 68.2401 44.3167 70.0371 44.3167Z" fill="#EBFFFD"/>
<path d="M79.5026 51.1145C80.3195 51.1145 80.9816 50.4805 80.9816 49.6984C80.9816 48.9163 80.3195 48.2822 79.5026 48.2822C78.6858 48.2822 78.0237 48.9163 78.0237 49.6984C78.0237 50.4805 78.6858 51.1145 79.5026 51.1145Z" fill="#EBFFFD"/>
<path d="M130.38 45.1667C130.38 49.9816 126.239 57.6287 120.914 57.6287C115.886 57.6287 111.449 50.2648 111.449 45.1667C111.449 40.3519 115.59 36.1035 120.914 36.1035C126.239 36.1035 130.38 40.0686 130.38 45.1667Z" fill="black"/>
<path d="M120.914 50.2647C123.855 50.2647 126.239 47.9822 126.239 45.1666C126.239 42.351 123.855 40.0685 120.914 40.0685C117.974 40.0685 115.59 42.351 115.59 45.1666C115.59 47.9822 117.974 50.2647 120.914 50.2647Z" fill="black"/>
<path d="M116.773 44.3167C118.57 44.3167 120.027 42.9219 120.027 41.2012C120.027 39.4806 118.57 38.0858 116.773 38.0858C114.976 38.0858 113.52 39.4806 113.52 41.2012C113.52 42.9219 114.976 44.3167 116.773 44.3167Z" fill="#EBFFFD"/>
<path d="M126.239 51.1145C127.056 51.1145 127.718 50.4805 127.718 49.6984C127.718 48.9163 127.056 48.2822 126.239 48.2822C125.422 48.2822 124.76 48.9163 124.76 49.6984C124.76 50.4805 125.422 51.1145 126.239 51.1145Z" fill="#EBFFFD"/>
<path d="M98.8836 180.59C120.121 180.59 137.337 178.688 137.337 176.342C137.337 173.995 120.121 172.093 98.8836 172.093C77.6462 172.093 60.4298 173.995 60.4298 176.342C60.4298 178.688 77.6462 180.59 98.8836 180.59Z" fill="#14103D"/>
<path d="M97.5465 74.6219C100.814 74.6219 103.463 72.0858 103.463 68.9574C103.463 65.8289 100.814 63.2928 97.5465 63.2928C94.2792 63.2928 91.6306 65.8289 91.6306 68.9574C91.6306 72.0858 94.2792 74.6219 97.5465 74.6219Z" fill="#14103D"/>
<path d="M97.5465 74.6219C100.814 74.6219 103.463 72.0858 103.463 68.9574C103.463 65.8289 100.814 63.2928 97.5465 63.2928C94.2792 63.2928 91.6306 65.8289 91.6306 68.9574C91.6306 72.0858 94.2792 74.6219 97.5465 74.6219Z" fill="#14103D"/>
<path d="M38.6823 78.3039L38.3865 77.7374C38.3865 78.0207 38.0907 78.0207 38.0907 78.3039C38.0907 106.167 42.7606 136.29 55.9742 156.031C60.1314 160.781 65.8229 166.957 67.6706 161.731V154.517V144.63V122.303V87.9336L56.726 78.3039H38.6823Z" fill="#5805F2"/>
<path d="M44.8804 90.6664C44.2359 82.8693 41.4691 76.7187 38.7005 76.9285C35.9319 77.1383 34.2099 83.6291 34.8544 91.4262C35.4989 99.2232 38.2658 105.374 41.0344 105.164C43.803 104.954 45.5249 98.4634 44.8804 90.6664Z" fill="#5805F2"/>
<path d="M150.373 90.7502C149.729 98.5472 151.45 105.038 154.219 105.248C156.988 105.458 159.755 99.307 160.399 91.51C161.044 83.713 159.322 77.2221 156.553 77.0123C153.784 76.8025 151.018 82.9532 150.373 90.7502Z" fill="#5805F2"/>
<path d="M154.731 78.2189L155.008 77.6494C155.008 77.9341 155.285 77.9341 155.285 78.2189C155.285 106.235 151.037 136.182 138.657 156.031C136.879 158.881 129.302 167.358 127.571 162.104V154.851V144.909V87.9015L137.825 78.2189H154.731Z" fill="#5805F2"/>
</g>
</g>
<defs>
<clipPath id="clip0_3_15">
<rect width="196" height="196" fill="white"/>
</clipPath>
<clipPath id="clip1_3_15">
<rect width="196" height="196" fill="white"/>
</clipPath>
</defs>
</svg>
