<svg width="84" height="100" viewBox="0 0 84 100" fill="none" xmlns="http://www.w3.org/2000/svg">
<path d="M60.8182 0H23.1803C10.3987 0 0 12.38 0 27.5962V72.4032C0 87.62 10.3987 99.9994 23.1803 99.9994H60.8182C73.6008 99.9994 83.9995 87.6194 83.9995 72.4032V27.5962C84 12.38 73.6008 0 60.8182 0ZM76.5472 72.4032C76.5472 82.7277 69.4913 91.127 60.8187 91.127H23.1803C14.5082 91.1276 7.45284 82.7277 7.45284 72.4032V27.5962C7.45284 17.2723 14.5082 8.87243 23.1803 8.87243H60.8182C69.4908 8.87243 76.5467 17.2723 76.5467 27.5962V72.4032H76.5472Z" fill="#D4D0CB"/>
<path d="M41.9998 24.2334C30.0648 24.2334 20.3552 35.7924 20.3552 50.0007C20.3552 64.2084 30.0648 75.7668 41.9998 75.7668C53.9348 75.7668 63.6443 64.2084 63.6443 50.0007C63.6443 35.7924 53.9348 24.2334 41.9998 24.2334ZM41.9998 66.8938C34.1748 66.8938 27.8081 59.3156 27.8081 50.0001C27.8081 40.6841 34.1743 33.1052 41.9998 33.1052C49.8253 33.1052 56.1915 40.6841 56.1915 50.0001C56.1915 59.3156 49.8248 66.8938 41.9998 66.8938Z" fill="#D4D0CB"/>
<path d="M64.5521 16.71C63.1162 16.71 61.7056 17.402 60.6915 18.6146C59.6725 19.8212 59.0867 21.5011 59.0867 23.2164C59.0867 24.9264 59.673 26.6057 60.6915 27.8182C61.7051 29.0249 63.1162 29.7229 64.5521 29.7229C65.993 29.7229 67.3991 29.0249 68.4176 27.8182C69.4362 26.6057 70.0175 24.9258 70.0175 23.2164C70.0175 21.5011 69.4362 19.8212 68.4176 18.6146C67.404 17.402 65.993 16.71 64.5521 16.71Z" fill="#D4D0CB"/>
</svg>
