<svg width="413" height="85" viewBox="0 0 413 85" fill="none" xmlns="http://www.w3.org/2000/svg">
<path d="M50.6481 84.1176C62.6056 84.1176 72.2991 83.2181 72.2991 82.1084C72.2991 80.9988 62.6056 80.0992 50.6481 80.0992C38.6905 80.0992 28.9971 80.9988 28.9971 82.1084C28.9971 83.2181 38.6905 84.1176 50.6481 84.1176Z" fill="white"/>
<ellipse cx="52" cy="51.9649" rx="20" ry="5.87967" fill="white"/>
<path d="M86 33.1437C86 56.8189 68.8264 54.4057 51.2389 54.4057C33.6514 54.4057 19 56.9535 19 33.1437C19 9.33387 35.08 4.08765 52.5 4.08765C69.92 4.08765 86 9.46839 86 33.1437Z" fill="white"/>
<path d="M45 17.5711C45 19.8257 42.5937 23.4066 39.5 23.4066C36.5781 23.4066 34 19.9584 34 17.5711C34 15.3165 36.4062 13.3271 39.5 13.3271C42.4219 13.3271 45 15.1839 45 17.5711Z" fill="black"/>
<path d="M40 20.0467C41.6569 20.0467 43 18.9185 43 17.5268C43 16.1351 41.6569 15.007 40 15.007C38.3431 15.007 37 16.1351 37 17.5268C37 18.9185 38.3431 20.0467 40 20.0467Z" fill="black"/>
<path d="M37.3066 17.3035C38.3184 17.3035 39.1386 16.6438 39.1386 15.8301C39.1386 15.0164 38.3184 14.3567 37.3066 14.3567C36.2948 14.3567 35.4746 15.0164 35.4746 15.8301C35.4746 16.6438 36.2948 17.3035 37.3066 17.3035Z" fill="#EBFFFD"/>
<path d="M42.636 20.5157C43.0959 20.5157 43.4687 20.2165 43.4687 19.8473C43.4687 19.4781 43.0959 19.1788 42.636 19.1788C42.1761 19.1788 41.8033 19.4781 41.8033 19.8473C41.8033 20.2165 42.1761 20.5157 42.636 20.5157Z" fill="#EBFFFD"/>
<path d="M71 17.5711C71 19.8257 68.8125 23.4066 66 23.4066C63.3437 23.4066 61 19.9584 61 17.5711C61 15.3165 63.1875 13.3271 66 13.3271C68.8125 13.3271 71 15.1839 71 17.5711Z" fill="black"/>
<path d="M66 20.0467C67.6568 20.0467 69 18.9185 69 17.5268C69 16.1351 67.6568 15.007 66 15.007C64.3431 15.007 63 16.1351 63 17.5268C63 18.9185 64.3431 20.0467 66 20.0467Z" fill="black"/>
<path d="M63.6208 17.3035C64.6326 17.3035 65.4528 16.6438 65.4528 15.8301C65.4528 15.0164 64.6326 14.3567 63.6208 14.3567C62.609 14.3567 61.7888 15.0164 61.7888 15.8301C61.7888 16.6438 62.609 17.3035 63.6208 17.3035Z" fill="#EBFFFD"/>
<path d="M68.9502 20.5157C69.4101 20.5157 69.783 20.2165 69.783 19.8473C69.783 19.4781 69.4101 19.1788 68.9502 19.1788C68.4903 19.1788 68.1175 19.4781 68.1175 19.8473C68.1175 20.2165 68.4903 20.5157 68.9502 20.5157Z" fill="#EBFFFD"/>
<path d="M52.5 31.8061C54.433 31.8061 56 30.4899 56 28.8662C56 27.2426 54.433 25.9264 52.5 25.9264C50.567 25.9264 49 27.2426 49 28.8662C49 30.4899 50.567 31.8061 52.5 31.8061Z" fill="#14103D"/>
<path d="M19.34 33.7516L19.17 33.486C19.17 33.6188 19 33.6188 19 33.7516C19 46.8163 21.6839 60.9408 29.2779 70.1969C31.6671 72.4244 34.9381 75.32 36 72.8699V69.4873V64.8511V54.3823V38.2668L29.71 33.7516H19.34Z" fill="white"/>
<path d="M23.1423 39.2234C22.7794 35.536 21.2216 32.6272 19.6627 32.7264C18.1039 32.8256 17.1344 35.8953 17.4973 39.5827C17.8601 43.2702 19.418 46.179 20.9768 46.0797C22.5356 45.9805 23.5051 42.9108 23.1423 39.2234Z" fill="white"/>
<path d="M82.5385 39.2631C82.1756 42.9506 83.1452 46.0202 84.704 46.1195C86.2628 46.2187 87.8207 43.3099 88.1835 39.6225C88.5464 35.935 87.5769 32.8654 86.0181 32.7661C84.4592 32.6669 82.9014 35.5757 82.5385 39.2631Z" fill="white"/>
<path d="M84.7 33.7526L84.85 33.486C84.85 33.6193 85 33.6193 85 33.7526C85 46.8659 82.7006 60.8833 76 70.1739C75.0378 71.508 70.9369 75.4758 70 73.0165V69.6213V64.9679V38.2846L75.55 33.7526H84.7Z" fill="white"/>
<ellipse cx="52" cy="51.9649" rx="20" ry="5.87967" fill="white"/>
<path d="M86 33.1437C86 56.8189 68.8264 54.4057 51.2389 54.4057C33.6514 54.4057 19 56.9535 19 33.1437C19 9.33387 35.08 4.08765 52.5 4.08765C69.92 4.08765 86 9.46839 86 33.1437Z" fill="white"/>
<path d="M45 17.5711C45 19.8257 42.5937 23.4066 39.5 23.4066C36.5781 23.4066 34 19.9584 34 17.5711C34 15.3165 36.4062 13.3271 39.5 13.3271C42.4219 13.3271 45 15.1839 45 17.5711Z" fill="black"/>
<path d="M40 20.0467C41.6569 20.0467 43 18.9185 43 17.5268C43 16.1351 41.6569 15.007 40 15.007C38.3431 15.007 37 16.1351 37 17.5268C37 18.9185 38.3431 20.0467 40 20.0467Z" fill="black"/>
<path d="M37.3066 17.3035C38.3184 17.3035 39.1386 16.6438 39.1386 15.8301C39.1386 15.0164 38.3184 14.3567 37.3066 14.3567C36.2948 14.3567 35.4746 15.0164 35.4746 15.8301C35.4746 16.6438 36.2948 17.3035 37.3066 17.3035Z" fill="#EBFFFD"/>
<path d="M42.636 20.5157C43.0959 20.5157 43.4687 20.2165 43.4687 19.8473C43.4687 19.4781 43.0959 19.1788 42.636 19.1788C42.1761 19.1788 41.8033 19.4781 41.8033 19.8473C41.8033 20.2165 42.1761 20.5157 42.636 20.5157Z" fill="#EBFFFD"/>
<path d="M71 17.5711C71 19.8257 68.8125 23.4066 66 23.4066C63.3437 23.4066 61 19.9584 61 17.5711C61 15.3165 63.1875 13.3271 66 13.3271C68.8125 13.3271 71 15.1839 71 17.5711Z" fill="black"/>
<path d="M66 20.0467C67.6568 20.0467 69 18.9185 69 17.5268C69 16.1351 67.6568 15.007 66 15.007C64.3431 15.007 63 16.1351 63 17.5268C63 18.9185 64.3431 20.0467 66 20.0467Z" fill="black"/>
<path d="M63.6208 17.3035C64.6326 17.3035 65.4528 16.6438 65.4528 15.8301C65.4528 15.0164 64.6326 14.3567 63.6208 14.3567C62.609 14.3567 61.7888 15.0164 61.7888 15.8301C61.7888 16.6438 62.609 17.3035 63.6208 17.3035Z" fill="#EBFFFD"/>
<path d="M68.9502 20.5157C69.4101 20.5157 69.783 20.2165 69.783 19.8473C69.783 19.4781 69.4101 19.1788 68.9502 19.1788C68.4903 19.1788 68.1175 19.4781 68.1175 19.8473C68.1175 20.2165 68.4903 20.5157 68.9502 20.5157Z" fill="#EBFFFD"/>
<path d="M52.5 31.8061C54.433 31.8061 56 30.4899 56 28.8662C56 27.2426 54.433 25.9264 52.5 25.9264C50.567 25.9264 49 27.2426 49 28.8662C49 30.4899 50.567 31.8061 52.5 31.8061Z" fill="#14103D"/>
<path d="M52.5 31.8061C54.433 31.8061 56 30.4899 56 28.8662C56 27.2426 54.433 25.9264 52.5 25.9264C50.567 25.9264 49 27.2426 49 28.8662C49 30.4899 50.567 31.8061 52.5 31.8061Z" fill="black"/>
<path d="M19.34 33.7516L19.17 33.486C19.17 33.6188 19 33.6188 19 33.7516C19 46.8163 21.6839 60.9408 29.2779 70.1969C31.6671 72.4244 34.9381 75.32 36 72.8699V69.4873V64.8511V54.3823V38.2668L29.71 33.7516H19.34Z" fill="white"/>
<path d="M23.1423 39.2234C22.7794 35.536 21.2216 32.6272 19.6627 32.7264C18.1039 32.8256 17.1344 35.8953 17.4973 39.5827C17.8601 43.2702 19.418 46.179 20.9768 46.0797C22.5356 45.9805 23.5051 42.9108 23.1423 39.2234Z" fill="white"/>
<path d="M82.5385 39.2631C82.1756 42.9506 83.1452 46.0202 84.704 46.1195C86.2628 46.2187 87.8207 43.3099 88.1835 39.6225C88.5464 35.935 87.5769 32.8654 86.0181 32.7661C84.4592 32.6669 82.9014 35.5757 82.5385 39.2631Z" fill="white"/>
<path d="M84.9924 33.3367L85.1484 33.0674C85.1484 33.2021 85.3044 33.2021 85.3044 33.3367C85.3044 46.5863 82.9124 60.7492 75.9418 70.1362C74.9408 71.4842 70.6747 75.4931 69.7 73.0083V69.5779V64.8762V37.9159L75.4736 33.3367H84.9924Z" fill="white"/>
<path d="M133.094 68.2476H127.098L116.297 49.8101V68.2476H110.692V40.2397H116.688L127.489 58.6968V40.2397H133.094V68.2476ZM145.75 63.1304C145.959 63.1955 146.167 63.241 146.375 63.2671C146.584 63.2801 146.792 63.2866 147 63.2866C147.521 63.2866 148.022 63.215 148.504 63.0718C148.986 62.9285 149.435 62.7267 149.852 62.4663C150.281 62.1929 150.659 61.8674 150.985 61.4897C151.323 61.0991 151.597 60.6694 151.805 60.2007L155.711 64.1265C155.216 64.8296 154.643 65.4611 153.992 66.021C153.354 66.5809 152.658 67.0562 151.903 67.4468C151.16 67.8374 150.373 68.1304 149.539 68.3257C148.719 68.534 147.873 68.6382 147 68.6382C145.529 68.6382 144.142 68.3647 142.84 67.8179C141.551 67.271 140.418 66.5093 139.442 65.5327C138.478 64.5562 137.716 63.3973 137.156 62.0562C136.597 60.702 136.317 59.2176 136.317 57.603C136.317 55.9494 136.597 54.439 137.156 53.0718C137.716 51.7046 138.478 50.5392 139.442 49.5757C140.418 48.6121 141.551 47.8634 142.84 47.3296C144.142 46.7957 145.529 46.5288 147 46.5288C147.873 46.5288 148.726 46.633 149.559 46.8413C150.392 47.0496 151.18 47.3491 151.922 47.7397C152.677 48.1304 153.38 48.6121 154.031 49.1851C154.683 49.745 155.255 50.3765 155.75 51.0796L145.75 63.1304ZM148.485 52.1343C148.237 52.0431 147.99 51.9845 147.742 51.9585C147.508 51.9325 147.261 51.9194 147 51.9194C146.271 51.9194 145.581 52.0562 144.93 52.3296C144.292 52.59 143.732 52.9676 143.25 53.4624C142.781 53.9572 142.41 54.5562 142.137 55.2593C141.864 55.9494 141.727 56.7306 141.727 57.603C141.727 57.7983 141.733 58.0197 141.746 58.2671C141.772 58.5145 141.805 58.7684 141.844 59.0288C141.896 59.2762 141.955 59.5171 142.02 59.7515C142.085 59.9858 142.17 60.1942 142.274 60.3765L148.485 52.1343ZM184.852 60.689C184.852 61.7827 184.643 62.8179 184.227 63.7944C183.81 64.758 183.237 65.5978 182.508 66.314C181.792 67.0301 180.946 67.5965 179.969 68.0132C179.005 68.4299 177.97 68.6382 176.864 68.6382C175.874 68.6382 174.923 68.4689 174.012 68.1304C173.101 67.7788 172.274 67.271 171.531 66.6069C170.802 67.271 169.982 67.7788 169.071 68.1304C168.172 68.4689 167.222 68.6382 166.219 68.6382C165.112 68.6382 164.077 68.4299 163.114 68.0132C162.15 67.5965 161.304 67.0301 160.574 66.314C159.858 65.5978 159.292 64.758 158.875 63.7944C158.459 62.8179 158.25 61.7827 158.25 60.689V47.3687H163.582V60.689C163.582 61.0535 163.647 61.3986 163.778 61.7241C163.921 62.0366 164.11 62.3166 164.344 62.564C164.591 62.7983 164.871 62.9871 165.184 63.1304C165.509 63.2606 165.854 63.3257 166.219 63.3257C166.584 63.3257 166.929 63.2606 167.254 63.1304C167.58 62.9871 167.866 62.7983 168.114 62.564C168.361 62.3166 168.55 62.0366 168.68 61.7241C168.823 61.3986 168.895 61.0535 168.895 60.689V47.3687H174.207V60.689C174.207 61.0535 174.279 61.3986 174.422 61.7241C174.565 62.0366 174.754 62.3166 174.989 62.564C175.236 62.7983 175.516 62.9871 175.828 63.1304C176.154 63.2606 176.499 63.3257 176.864 63.3257C177.228 63.3257 177.573 63.2606 177.899 63.1304C178.224 62.9871 178.504 62.7983 178.739 62.564C178.986 62.3166 179.181 62.0366 179.324 61.7241C179.468 61.3986 179.539 61.0535 179.539 60.689V47.3687H184.852V60.689ZM212.254 68.2476H206.668V45.8452H198.25V40.2397H220.653V45.8452H212.254V68.2476ZM228.094 63.1304C228.302 63.1955 228.511 63.241 228.719 63.2671C228.927 63.2801 229.136 63.2866 229.344 63.2866C229.865 63.2866 230.366 63.215 230.848 63.0718C231.33 62.9285 231.779 62.7267 232.196 62.4663C232.625 62.1929 233.003 61.8674 233.328 61.4897C233.667 61.0991 233.94 60.6694 234.149 60.2007L238.055 64.1265C237.56 64.8296 236.987 65.4611 236.336 66.021C235.698 66.5809 235.002 67.0562 234.246 67.4468C233.504 67.8374 232.716 68.1304 231.883 68.3257C231.063 68.534 230.216 68.6382 229.344 68.6382C227.873 68.6382 226.486 68.3647 225.184 67.8179C223.895 67.271 222.762 66.5093 221.785 65.5327C220.822 64.5562 220.06 63.3973 219.5 62.0562C218.94 60.702 218.66 59.2176 218.66 57.603C218.66 55.9494 218.94 54.439 219.5 53.0718C220.06 51.7046 220.822 50.5392 221.785 49.5757C222.762 48.6121 223.895 47.8634 225.184 47.3296C226.486 46.7957 227.873 46.5288 229.344 46.5288C230.216 46.5288 231.069 46.633 231.903 46.8413C232.736 47.0496 233.524 47.3491 234.266 47.7397C235.021 48.1304 235.724 48.6121 236.375 49.1851C237.026 49.745 237.599 50.3765 238.094 51.0796L228.094 63.1304ZM230.828 52.1343C230.581 52.0431 230.334 51.9845 230.086 51.9585C229.852 51.9325 229.604 51.9194 229.344 51.9194C228.615 51.9194 227.925 52.0562 227.274 52.3296C226.636 52.59 226.076 52.9676 225.594 53.4624C225.125 53.9572 224.754 54.5562 224.481 55.2593C224.207 55.9494 224.071 56.7306 224.071 57.603C224.071 57.7983 224.077 58.0197 224.09 58.2671C224.116 58.5145 224.149 58.7684 224.188 59.0288C224.24 59.2762 224.298 59.5171 224.364 59.7515C224.429 59.9858 224.513 60.1942 224.617 60.3765L230.828 52.1343ZM258.914 51.4897L255.008 55.4155C254.813 54.8687 254.546 54.3804 254.207 53.9507C253.869 53.508 253.485 53.1369 253.055 52.8374C252.638 52.5379 252.183 52.3101 251.688 52.1538C251.193 51.9976 250.685 51.9194 250.164 51.9194C249.435 51.9194 248.745 52.0692 248.094 52.3687C247.456 52.6681 246.896 53.0913 246.414 53.6382C245.946 54.172 245.574 54.8101 245.301 55.5522C245.028 56.2944 244.891 57.1147 244.891 58.0132C244.891 58.7424 245.028 59.4259 245.301 60.064C245.574 60.702 245.946 61.2619 246.414 61.7437C246.896 62.2254 247.456 62.603 248.094 62.8765C248.745 63.1499 249.435 63.2866 250.164 63.2866C250.685 63.2866 251.186 63.215 251.668 63.0718C252.15 62.9285 252.599 62.7267 253.016 62.4663C253.446 62.1929 253.823 61.8674 254.149 61.4897C254.487 61.0991 254.761 60.6694 254.969 60.2007L258.875 64.1265C258.38 64.8296 257.808 65.4611 257.156 66.021C256.518 66.5809 255.822 67.0562 255.067 67.4468C254.324 67.8374 253.537 68.1304 252.703 68.3257C251.883 68.534 251.037 68.6382 250.164 68.6382C248.693 68.6382 247.306 68.3647 246.004 67.8179C244.715 67.258 243.582 66.4963 242.606 65.5327C241.642 64.5692 240.88 63.4429 240.321 62.1538C239.761 60.8647 239.481 59.4845 239.481 58.0132C239.481 56.4116 239.761 54.9142 240.321 53.521C240.88 52.1278 241.642 50.9168 242.606 49.8882C243.582 48.8465 244.715 48.0262 246.004 47.4272C247.306 46.8283 248.693 46.5288 250.164 46.5288C251.037 46.5288 251.89 46.6395 252.723 46.8608C253.569 47.0822 254.37 47.4077 255.125 47.8374C255.893 48.2541 256.597 48.7684 257.235 49.3804C257.886 49.9924 258.446 50.6955 258.914 51.4897ZM266.864 68.2476H261.531V39.0093H266.864V48.2476C267.502 47.7658 268.159 47.4272 268.836 47.2319C269.513 47.0236 270.203 46.9194 270.906 46.9194C272.196 46.9194 273.406 47.1668 274.539 47.6616C275.672 48.1434 276.655 48.814 277.489 49.6733C278.335 50.5197 278.999 51.5158 279.481 52.6616C279.976 53.7944 280.223 55.0054 280.223 56.2944V68.2476H274.852V56.2944H274.891C274.891 55.7476 274.787 55.2332 274.578 54.7515C274.37 54.2567 274.084 53.827 273.719 53.4624C273.354 53.0978 272.931 52.8114 272.449 52.603C271.968 52.3947 271.453 52.2905 270.906 52.2905C270.347 52.2905 269.819 52.3947 269.324 52.603C268.83 52.8114 268.4 53.0978 268.035 53.4624C267.671 53.827 267.384 54.2567 267.176 54.7515C266.968 55.2332 266.864 55.7476 266.864 56.2944V68.2476ZM301.414 68.2476H295.809V40.2397H301.414V68.2476ZM323.114 57.0562V51.4507C323.114 50.6825 322.964 49.9598 322.664 49.2827C322.378 48.5926 321.981 47.9937 321.473 47.4858C320.965 46.978 320.366 46.5809 319.676 46.2944C318.999 45.995 318.276 45.8452 317.508 45.8452C316.74 45.8452 316.011 45.995 315.321 46.2944C314.643 46.5809 314.051 46.978 313.543 47.4858C313.035 47.9937 312.632 48.5926 312.332 49.2827C312.046 49.9598 311.903 50.6825 311.903 51.4507V57.0562H323.114ZM328.719 68.2476H323.114V62.6421H311.903V68.2476H306.317V51.4507C306.317 49.9012 306.61 48.4494 307.196 47.0952C307.781 45.728 308.576 44.5366 309.578 43.521C310.594 42.5054 311.779 41.7046 313.133 41.1187C314.5 40.5327 315.959 40.2397 317.508 40.2397C319.058 40.2397 320.509 40.5327 321.864 41.1187C323.231 41.7046 324.422 42.5054 325.438 43.521C326.453 44.5366 327.254 45.728 327.84 47.0952C328.426 48.4494 328.719 49.9012 328.719 51.4507V68.2476Z" fill="white"/>
</svg>
