<svg width="144" height="179" viewBox="0 0 144 179" fill="none" xmlns="http://www.w3.org/2000/svg">
<ellipse cx="70.9359" cy="73.2804" rx="26.9557" ry="9.21698" fill="#5805F2"/>
<path d="M117.426 44.5307C117.426 80.3519 94.1384 76.7006 70.2898 76.7006C46.4413 76.7006 26.574 80.5554 26.574 44.5307C26.574 8.50601 48.3784 0.568359 71.9998 0.568359C95.6213 0.568359 117.426 8.70954 117.426 44.5307Z" fill="#5805F2"/>
<path d="M61.3246 20.9211C61.3246 24.3811 58.1448 29.8764 54.0565 29.8764C50.1953 29.8764 46.7883 24.5847 46.7883 20.9211C46.7883 17.4611 49.9681 14.4082 54.0565 14.4082C57.9177 14.4082 61.3246 17.2576 61.3246 20.9211Z" fill="black"/>
<path d="M54.0563 24.5849C56.3143 24.5849 58.1447 22.9447 58.1447 20.9213C58.1447 18.898 56.3143 17.2578 54.0563 17.2578C51.7984 17.2578 49.968 18.898 49.968 20.9213C49.968 22.9447 51.7984 24.5849 54.0563 24.5849Z" fill="black"/>
<path d="M50.8768 20.3107C52.2567 20.3107 53.3753 19.3083 53.3753 18.0718C53.3753 16.8354 52.2567 15.833 50.8768 15.833C49.497 15.833 48.3784 16.8354 48.3784 18.0718C48.3784 19.3083 49.497 20.3107 50.8768 20.3107Z" fill="#EBFFFD"/>
<path d="M58.1449 25.1955C58.7721 25.1955 59.2806 24.7398 59.2806 24.1778C59.2806 23.6158 58.7721 23.1602 58.1449 23.1602C57.5177 23.1602 57.0093 23.6158 57.0093 24.1778C57.0093 24.7398 57.5177 25.1955 58.1449 25.1955Z" fill="#EBFFFD"/>
<path d="M97.2111 20.9211C97.2111 24.3811 94.0313 29.8764 89.9429 29.8764C86.0817 29.8764 82.6748 24.5847 82.6748 20.9211C82.6748 17.4611 85.8546 14.4082 89.9429 14.4082C94.0313 14.4082 97.2111 17.2576 97.2111 20.9211Z" fill="black"/>
<path d="M89.9428 24.5849C92.2007 24.5849 94.0312 22.9447 94.0312 20.9213C94.0312 18.898 92.2007 17.2578 89.9428 17.2578C87.6849 17.2578 85.8545 18.898 85.8545 20.9213C85.8545 22.9447 87.6849 24.5849 89.9428 24.5849Z" fill="black"/>
<path d="M86.7633 20.3107C88.1432 20.3107 89.2617 19.3083 89.2617 18.0718C89.2617 16.8354 88.1432 15.833 86.7633 15.833C85.3835 15.833 84.2649 16.8354 84.2649 18.0718C84.2649 19.3083 85.3835 20.3107 86.7633 20.3107Z" fill="#EBFFFD"/>
<path d="M94.0314 25.1955C94.6586 25.1955 95.167 24.7398 95.167 24.1778C95.167 23.6158 94.6586 23.1602 94.0314 23.1602C93.4042 23.1602 92.8958 23.6158 92.8958 24.1778C92.8958 24.7398 93.4042 25.1955 94.0314 25.1955Z" fill="#EBFFFD"/>
<path d="M71.9999 42.0884C74.5087 42.0884 76.5424 40.266 76.5424 38.0179C76.5424 35.7697 74.5087 33.9473 71.9999 33.9473C69.4911 33.9473 67.4573 35.7697 67.4573 38.0179C67.4573 40.266 69.4911 42.0884 71.9999 42.0884Z" fill="#14103D"/>
<path d="M26.8009 44.7342L26.5738 44.3271C26.5738 44.5307 26.3467 44.5307 26.3467 44.7342C26.3467 64.7569 29.9325 86.4039 40.0785 100.59C43.2706 104.003 47.6409 108.441 49.0596 104.686V99.5019V92.3967V76.3524V51.6542L40.6558 44.7342H26.8009Z" fill="#5805F2"/>
<path d="M31.5602 53.6184C31.0654 48.0154 28.9408 43.5955 26.8149 43.7462C24.6891 43.897 23.3669 48.5614 23.8618 54.1644C24.3566 59.7674 26.4812 64.1873 28.607 64.0366C30.7329 63.8858 32.0551 59.2214 31.5602 53.6184Z" fill="#5805F2"/>
<path d="M112.563 53.6783C112.068 59.2813 113.39 63.9457 115.516 64.0965C117.642 64.2472 119.766 59.8273 120.261 54.2243C120.756 48.6213 119.434 43.9569 117.308 43.8061C115.182 43.6553 113.058 48.0753 112.563 53.6783Z" fill="#5805F2"/>
<path d="M115.909 44.673L116.122 44.2637C116.122 44.4683 116.335 44.4683 116.335 44.673C116.335 64.8056 113.073 86.3261 103.566 100.59C102.201 102.638 96.3832 108.729 95.0539 104.954V99.7413V92.5971V51.6309L102.928 44.673H115.909Z" fill="#5805F2"/>
<ellipse cx="70.9359" cy="73.2804" rx="26.9557" ry="9.21698" fill="#5805F2"/>
<path d="M117.426 44.5307C117.426 80.3519 94.1384 76.7006 70.2898 76.7006C46.4413 76.7006 26.574 80.5554 26.574 44.5307C26.574 8.50601 48.3784 0.568359 71.9998 0.568359C95.6213 0.568359 117.426 8.70954 117.426 44.5307Z" fill="#5805F2"/>
<path d="M61.3246 20.9211C61.3246 24.3811 58.1448 29.8764 54.0565 29.8764C50.1953 29.8764 46.7883 24.5847 46.7883 20.9211C46.7883 17.4611 49.9681 14.4082 54.0565 14.4082C57.9177 14.4082 61.3246 17.2576 61.3246 20.9211Z" fill="black"/>
<path d="M54.0563 24.5849C56.3143 24.5849 58.1447 22.9447 58.1447 20.9213C58.1447 18.898 56.3143 17.2578 54.0563 17.2578C51.7984 17.2578 49.968 18.898 49.968 20.9213C49.968 22.9447 51.7984 24.5849 54.0563 24.5849Z" fill="black"/>
<path d="M50.8768 20.3107C52.2567 20.3107 53.3753 19.3083 53.3753 18.0718C53.3753 16.8354 52.2567 15.833 50.8768 15.833C49.497 15.833 48.3784 16.8354 48.3784 18.0718C48.3784 19.3083 49.497 20.3107 50.8768 20.3107Z" fill="#EBFFFD"/>
<path d="M58.1449 25.1955C58.7721 25.1955 59.2806 24.7398 59.2806 24.1778C59.2806 23.6158 58.7721 23.1602 58.1449 23.1602C57.5177 23.1602 57.0093 23.6158 57.0093 24.1778C57.0093 24.7398 57.5177 25.1955 58.1449 25.1955Z" fill="#EBFFFD"/>
<path d="M97.2111 20.9211C97.2111 24.3811 94.0313 29.8764 89.9429 29.8764C86.0817 29.8764 82.6748 24.5847 82.6748 20.9211C82.6748 17.4611 85.8546 14.4082 89.9429 14.4082C94.0313 14.4082 97.2111 17.2576 97.2111 20.9211Z" fill="black"/>
<path d="M89.9428 24.5849C92.2007 24.5849 94.0312 22.9447 94.0312 20.9213C94.0312 18.898 92.2007 17.2578 89.9428 17.2578C87.6849 17.2578 85.8545 18.898 85.8545 20.9213C85.8545 22.9447 87.6849 24.5849 89.9428 24.5849Z" fill="black"/>
<path d="M86.7633 20.3107C88.1432 20.3107 89.2617 19.3083 89.2617 18.0718C89.2617 16.8354 88.1432 15.833 86.7633 15.833C85.3835 15.833 84.2649 16.8354 84.2649 18.0718C84.2649 19.3083 85.3835 20.3107 86.7633 20.3107Z" fill="#EBFFFD"/>
<path d="M94.0314 25.1955C94.6586 25.1955 95.167 24.7398 95.167 24.1778C95.167 23.6158 94.6586 23.1602 94.0314 23.1602C93.4042 23.1602 92.8958 23.6158 92.8958 24.1778C92.8958 24.7398 93.4042 25.1955 94.0314 25.1955Z" fill="#EBFFFD"/>
<path d="M73.0268 118.238C89.334 118.238 102.554 116.871 102.554 115.185C102.554 113.499 89.334 112.132 73.0268 112.132C56.7196 112.132 43.5 113.499 43.5 115.185C43.5 116.871 56.7196 118.238 73.0268 118.238Z" fill="#14103D"/>
<path d="M71.9999 42.0884C74.5087 42.0884 76.5424 40.266 76.5424 38.0179C76.5424 35.7697 74.5087 33.9473 71.9999 33.9473C69.4911 33.9473 67.4573 35.7697 67.4573 38.0179C67.4573 40.266 69.4911 42.0884 71.9999 42.0884Z" fill="#14103D"/>
<path d="M26.8009 44.7342L26.5738 44.3271C26.5738 44.5307 26.3467 44.5307 26.3467 44.7342C26.3467 64.7569 29.9325 86.4039 40.0785 100.59C43.2706 104.003 47.6409 108.441 49.0596 104.686V99.5019V92.3967V76.3524V51.6542L40.6558 44.7342H26.8009Z" fill="#5805F2"/>
<path d="M31.5602 53.6184C31.0654 48.0154 28.9408 43.5955 26.8149 43.7462C24.6891 43.897 23.3669 48.5614 23.8618 54.1644C24.3566 59.7674 26.4812 64.1873 28.607 64.0366C30.7329 63.8858 32.0551 59.2214 31.5602 53.6184Z" fill="#5805F2"/>
<path d="M112.563 53.6783C112.068 59.2813 113.39 63.9457 115.516 64.0965C117.642 64.2472 119.766 59.8273 120.261 54.2243C120.756 48.6213 119.434 43.9569 117.308 43.8061C115.182 43.6553 113.058 48.0753 112.563 53.6783Z" fill="#5805F2"/>
<path d="M115.909 44.673L116.122 44.2637C116.122 44.4683 116.335 44.4683 116.335 44.673C116.335 64.8056 113.073 86.3261 103.566 100.59C102.201 102.638 96.3834 108.729 95.0542 104.954V99.7413V92.5971V51.6309L102.928 44.673H115.909Z" fill="#5805F2"/>
<ellipse cx="68.0002" cy="107.804" rx="38" ry="13.4668" fill="white"/>
<path d="M133.538 64.8012C133.538 117.139 100.709 111.804 67.0894 111.804C33.4695 111.804 5.46216 117.437 5.46216 64.8012C5.46216 12.166 36.2003 0.568359 69.5 0.568359C102.8 0.568359 133.538 12.4633 133.538 64.8012Z" fill="white"/>
<path d="M54.4511 31.3031C54.4511 36.3585 49.9684 44.3876 44.205 44.3876C38.7618 44.3876 33.959 36.6558 33.959 31.3031C33.959 26.2477 38.4416 21.7871 44.205 21.7871C49.6483 21.7871 54.4511 25.9504 54.4511 31.3031Z" fill="black"/>
<path d="M44.2051 36.6567C47.3881 36.6567 49.9685 34.2601 49.9685 31.3039C49.9685 28.3477 47.3881 25.9512 44.2051 25.9512C41.022 25.9512 38.4417 28.3477 38.4417 31.3039C38.4417 34.2601 41.022 36.6567 44.2051 36.6567Z" fill="black"/>
<path d="M39.7225 30.4114C41.6677 30.4114 43.2446 28.9468 43.2446 27.1403C43.2446 25.3337 41.6677 23.8691 39.7225 23.8691C37.7773 23.8691 36.2004 25.3337 36.2004 27.1403C36.2004 28.9468 37.7773 30.4114 39.7225 30.4114Z" fill="#EBFFFD"/>
<path d="M49.9686 37.548C50.8528 37.548 51.5696 36.8823 51.5696 36.0611C51.5696 35.2399 50.8528 34.5742 49.9686 34.5742C49.0844 34.5742 48.3677 35.2399 48.3677 36.0611C48.3677 36.8823 49.0844 37.548 49.9686 37.548Z" fill="#EBFFFD"/>
<path d="M105.041 31.3031C105.041 36.3585 100.558 44.3876 94.7949 44.3876C89.3517 44.3876 84.5488 36.6558 84.5488 31.3031C84.5488 26.2477 89.0315 21.7871 94.7949 21.7871C100.558 21.7871 105.041 25.9504 105.041 31.3031Z" fill="black"/>
<path d="M94.7949 36.6567C97.9779 36.6567 100.558 34.2601 100.558 31.3039C100.558 28.3477 97.9779 25.9512 94.7949 25.9512C91.6119 25.9512 89.0315 28.3477 89.0315 31.3039C89.0315 34.2601 91.6119 36.6567 94.7949 36.6567Z" fill="black"/>
<path d="M90.3126 30.4114C92.2578 30.4114 93.8347 28.9468 93.8347 27.1403C93.8347 25.3337 92.2578 23.8691 90.3126 23.8691C88.3674 23.8691 86.7905 25.3337 86.7905 27.1403C86.7905 28.9468 88.3674 30.4114 90.3126 30.4114Z" fill="#EBFFFD"/>
<path d="M100.558 37.548C101.443 37.548 102.159 36.8823 102.159 36.0611C102.159 35.2399 101.443 34.5742 100.558 34.5742C99.6743 34.5742 98.9575 35.2399 98.9575 36.0611C98.9575 36.8823 99.6743 37.548 100.558 37.548Z" fill="#EBFFFD"/>
<path d="M69.5002 62.2299C73.0369 62.2299 75.904 59.5672 75.904 56.2824C75.904 52.9977 73.0369 50.335 69.5002 50.335C65.9635 50.335 63.0964 52.9977 63.0964 56.2824C63.0964 59.5672 65.9635 62.2299 69.5002 62.2299Z" fill="#444444"/>
<path d="M5.78247 66.0957L5.46228 65.501C5.46228 65.7984 5.14209 65.7984 5.14209 66.0957C5.14209 95.3507 10.1971 126.979 24.5001 147.705C29.0001 152.693 35.161 159.177 37.161 153.691V146.116V135.735V112.293V76.2065L25.314 66.0957H5.78247Z" fill="white"/>
<path d="M12.4916 79.0765C11.794 70.89 8.79898 64.4321 5.80209 64.6524C2.8052 64.8727 0.941287 71.6877 1.63892 79.8743C2.33656 88.0608 5.33156 94.5187 8.32845 94.2984C11.3253 94.0781 13.1892 87.263 12.4916 79.0765Z" fill="white"/>
<path d="M126.683 79.1639C125.985 87.3505 127.849 94.1655 130.846 94.3858C133.843 94.6061 136.838 88.1482 137.535 79.9617C138.233 71.7752 136.369 64.9601 133.372 64.7398C130.375 64.5195 127.38 70.9774 126.683 79.1639Z" fill="white"/>
<path d="M131.4 66.0072L131.7 65.4092C131.7 65.7082 132 65.7082 132 66.0072C132 95.4227 127.401 126.866 114 147.706C112.076 150.699 103.874 159.599 102 154.083V146.467V136.029V76.1734L113.1 66.0072H131.4Z" fill="white"/>
<ellipse cx="68.0002" cy="107.804" rx="38" ry="13.4668" fill="white"/>
<path d="M133.538 65.7993C133.538 118.137 100.709 112.802 67.0894 112.802C33.4695 112.802 5.46216 118.435 5.46216 65.7993C5.46216 13.164 36.2003 1.56641 69.5 1.56641C102.8 1.56641 133.538 13.4614 133.538 65.7993Z" fill="white"/>
<path d="M54.4511 31.3031C54.4511 36.3585 49.9684 44.3876 44.205 44.3876C38.7618 44.3876 33.959 36.6558 33.959 31.3031C33.959 26.2477 38.4416 21.7871 44.205 21.7871C49.6483 21.7871 54.4511 25.9504 54.4511 31.3031Z" fill="black"/>
<path d="M44.2051 36.6567C47.3881 36.6567 49.9685 34.2601 49.9685 31.3039C49.9685 28.3477 47.3881 25.9512 44.2051 25.9512C41.022 25.9512 38.4417 28.3477 38.4417 31.3039C38.4417 34.2601 41.022 36.6567 44.2051 36.6567Z" fill="black"/>
<path d="M39.7225 30.4114C41.6677 30.4114 43.2446 28.9468 43.2446 27.1403C43.2446 25.3337 41.6677 23.8691 39.7225 23.8691C37.7773 23.8691 36.2004 25.3337 36.2004 27.1403C36.2004 28.9468 37.7773 30.4114 39.7225 30.4114Z" fill="#EBFFFD"/>
<path d="M49.9686 37.548C50.8528 37.548 51.5696 36.8823 51.5696 36.0611C51.5696 35.2399 50.8528 34.5742 49.9686 34.5742C49.0844 34.5742 48.3677 35.2399 48.3677 36.0611C48.3677 36.8823 49.0844 37.548 49.9686 37.548Z" fill="#EBFFFD"/>
<path d="M105.041 31.3031C105.041 36.3585 100.558 44.3876 94.7949 44.3876C89.3517 44.3876 84.5488 36.6558 84.5488 31.3031C84.5488 26.2477 89.0315 21.7871 94.7949 21.7871C100.558 21.7871 105.041 25.9504 105.041 31.3031Z" fill="black"/>
<path d="M94.7949 36.6567C97.9779 36.6567 100.558 34.2601 100.558 31.3039C100.558 28.3477 97.9779 25.9512 94.7949 25.9512C91.6119 25.9512 89.0315 28.3477 89.0315 31.3039C89.0315 34.2601 91.6119 36.6567 94.7949 36.6567Z" fill="black"/>
<path d="M90.3126 30.4114C92.2578 30.4114 93.8347 28.9468 93.8347 27.1403C93.8347 25.3337 92.2578 23.8691 90.3126 23.8691C88.3674 23.8691 86.7905 25.3337 86.7905 27.1403C86.7905 28.9468 88.3674 30.4114 90.3126 30.4114Z" fill="#EBFFFD"/>
<path d="M100.558 37.548C101.443 37.548 102.159 36.8823 102.159 36.0611C102.159 35.2399 101.443 34.5742 100.558 34.5742C99.6743 34.5742 98.9575 35.2399 98.9575 36.0611C98.9575 36.8823 99.6743 37.548 100.558 37.548Z" fill="#EBFFFD"/>
<path d="M69.5002 62.2299C73.0369 62.2299 75.904 59.5672 75.904 56.2824C75.904 52.9977 73.0369 50.335 69.5002 50.335C65.9635 50.335 63.0964 52.9977 63.0964 56.2824C63.0964 59.5672 65.9635 62.2299 69.5002 62.2299Z" fill="#444444"/>
<path d="M5.78247 66.0957L5.46228 65.501C5.46228 65.7984 5.14209 65.7984 5.14209 66.0957C5.14209 95.3507 10.1971 126.979 24.5001 147.705C29.0001 152.693 35.161 159.177 37.161 153.691V146.116V135.735V112.293V76.2065L25.314 66.0957H5.78247Z" fill="white"/>
<path d="M12.4916 91.0463C11.794 82.8597 8.79898 76.4018 5.80209 76.6221C2.8052 76.8424 0.941287 83.6575 1.63892 91.844C2.33656 100.031 5.33156 106.488 8.32845 106.268C11.3253 106.048 13.1892 99.2328 12.4916 91.0463Z" fill="white"/>
<path d="M126.683 79.1639C125.985 87.3505 127.849 94.1655 130.846 94.3858C133.843 94.6061 136.838 88.1482 137.535 79.9617C138.233 71.7752 136.369 64.9601 133.372 64.7398C130.375 64.5195 127.38 70.9774 126.683 79.1639Z" fill="white"/>
<path d="M131.4 66.0072L131.7 65.4092C131.7 65.7082 132 65.7082 132 66.0072C132 95.4227 127.401 126.866 114 147.706C112.076 150.699 103.874 159.599 102 154.083V146.467V136.029V76.1734L113.1 66.0072H131.4Z" fill="white"/>
</svg>
