<svg xmlns="http://www.w3.org/2000/svg" version="1.1" xmlns:xlink="http://www.w3.org/1999/xlink" xmlns:svgjs="http://svgjs.dev/svgjs" viewBox="0 0 800 800"><defs><linearGradient x1="50%" y1="0%" x2="50%" y2="100%" id="cccoil-grad"><stop stop-color="#7ff007" stop-opacity="1" offset="0%"></stop><stop stop-color="hsl(89, 94%, 33%)" stop-opacity="1" offset="100%"></stop></linearGradient></defs><g stroke="url(#cccoil-grad)" fill="none" stroke-linecap="round"><circle r="414" cx="400" cy="400" stroke-width="6.5" stroke-dasharray="2211 2601" transform="rotate(360, 400, 400)"></circle><circle r="396" cx="400" cy="400" stroke-width="6.5" stroke-dasharray="2019 2488" transform="rotate(344, 400, 400)"></circle><circle r="378" cx="400" cy="400" stroke-width="6.5" stroke-dasharray="1835 2375" transform="rotate(327, 400, 400)"></circle><circle r="360" cx="400" cy="400" stroke-width="6.5" stroke-dasharray="1660 2262" transform="rotate(311, 400, 400)"></circle><circle r="342" cx="400" cy="400" stroke-width="6.5" stroke-dasharray="1494 2149" transform="rotate(295, 400, 400)"></circle><circle r="324" cx="400" cy="400" stroke-width="6.5" stroke-dasharray="1337 2036" transform="rotate(278, 400, 400)"></circle><circle r="306" cx="400" cy="400" stroke-width="6.5" stroke-dasharray="1189 1923" transform="rotate(262, 400, 400)"></circle><circle r="288" cx="400" cy="400" stroke-width="6.5" stroke-dasharray="1049 1810" transform="rotate(245, 400, 400)"></circle><circle r="270" cx="400" cy="400" stroke-width="6.5" stroke-dasharray="918 1696" transform="rotate(229, 400, 400)"></circle><circle r="252" cx="400" cy="400" stroke-width="6.5" stroke-dasharray="795 1583" transform="rotate(213, 400, 400)"></circle><circle r="234" cx="400" cy="400" stroke-width="6.5" stroke-dasharray="682 1470" transform="rotate(196, 400, 400)"></circle><circle r="216" cx="400" cy="400" stroke-width="6.5" stroke-dasharray="577 1357" transform="rotate(180, 400, 400)"></circle><circle r="198" cx="400" cy="400" stroke-width="6.5" stroke-dasharray="481 1244" transform="rotate(164, 400, 400)"></circle><circle r="180" cx="400" cy="400" stroke-width="6.5" stroke-dasharray="393 1131" transform="rotate(147, 400, 400)"></circle><circle r="162" cx="400" cy="400" stroke-width="6.5" stroke-dasharray="315 1018" transform="rotate(131, 400, 400)"></circle><circle r="144" cx="400" cy="400" stroke-width="6.5" stroke-dasharray="245 905" transform="rotate(115, 400, 400)"></circle><circle r="126" cx="400" cy="400" stroke-width="6.5" stroke-dasharray="184 792" transform="rotate(98, 400, 400)"></circle><circle r="108" cx="400" cy="400" stroke-width="6.5" stroke-dasharray="131 679" transform="rotate(82, 400, 400)"></circle><circle r="90" cx="400" cy="400" stroke-width="6.5" stroke-dasharray="87 565" transform="rotate(65, 400, 400)"></circle><circle r="72" cx="400" cy="400" stroke-width="6.5" stroke-dasharray="52 452" transform="rotate(49, 400, 400)"></circle><circle r="54" cx="400" cy="400" stroke-width="6.5" stroke-dasharray="26 339" transform="rotate(33, 400, 400)"></circle><circle r="36" cx="400" cy="400" stroke-width="6.5" stroke-dasharray="9 226" transform="rotate(16, 400, 400)"></circle><circle r="18" cx="400" cy="400" stroke-width="6.5" stroke-dasharray="0 113"></circle></g></svg>