<svg xmlns="http://www.w3.org/2000/svg" version="1.1" xmlns:xlink="http://www.w3.org/1999/xlink" xmlns:svgjs="http://svgjs.dev/svgjs" viewBox="0 0 2400 800" opacity="1"><defs><linearGradient x1="50%" y1="0%" x2="50%" y2="100%" id="sssurf-grad"><stop stop-color="rgba(20, 16, 61, 1.00)" stop-opacity="1" offset="0%"></stop><stop stop-color="rgba(72, 58, 223, 1.00)" stop-opacity="1" offset="100%"></stop></linearGradient></defs><g fill="url(#sssurf-grad)" transform="matrix(1,0,0,1,4.3314208984375,355.9442367553711)"><path d="M-10,10C92.08333333333334,23.125,277.9166666666667,78.41666666666667,480,73C682.0833333333333,67.58333333333333,760,-18.291666666666668,960,-16C1160,-13.708333333333334,1240,97.54166666666667,1440,84C1640,70.45833333333333,1720,-73.70833333333333,1920,-81C2120,-88.29166666666667,2247.9166666666665,-51.20833333333334,2400,49C2552.0833333333335,149.20833333333334,3254.1666666666665,222.70833333333331,2650,400C2045.8333333333335,577.2916666666667,156.25,795.8333333333334,-500,900" transform="matrix(1,0,0,1,0,35)" opacity="NaN"></path></g></svg>