<svg width="79" height="100" viewBox="0 0 79 100" fill="none" xmlns="http://www.w3.org/2000/svg">
<path fill-rule="evenodd" clip-rule="evenodd" d="M67.49 14.7504C60.0637 5.40721 50.1872 0.259158 39.665 0.253906C17.9841 0.253906 0.338491 22.4269 0.329815 49.6813C0.326923 58.3932 2.13828 66.8973 5.58029 74.3932L0 100.008L20.8521 93.1344C26.5973 97.0722 33.0659 99.1475 39.6492 99.151H39.6654C61.344 99.151 78.9912 76.9751 79 49.7207C79.0042 36.5129 74.9166 24.0935 67.49 14.7504ZM39.6654 90.8024H39.652C33.7856 90.7996 28.0316 88.8191 23.012 85.0757L21.8181 84.1853L9.44433 88.2643L12.7472 73.1035L11.9697 71.5492C8.69708 65.0077 6.96853 57.4471 6.9711 49.6843C6.97828 27.0317 21.6447 8.60239 39.6784 8.60239C48.4107 8.60657 56.6194 12.8857 62.7921 20.6514C68.9647 28.4171 72.3621 38.7396 72.3588 49.7175C72.3513 72.3718 57.6851 90.8024 39.6654 90.8024ZM57.5985 60.0323C56.6156 59.4141 51.7835 56.426 50.8825 56.0139C49.9817 55.6017 49.3265 55.3957 48.6712 56.6322C48.0161 57.8686 46.1325 60.6506 45.559 61.4748C44.9858 62.2992 44.4125 62.4023 43.4296 61.784C42.4468 61.1658 39.28 59.8617 35.5258 55.6538C32.6042 52.379 30.6315 48.334 30.0582 47.0977C29.4849 45.8611 29.9973 45.1926 30.4893 44.577C30.9314 44.0235 31.4721 43.1344 31.9635 42.4131C32.4549 41.6919 32.6187 41.1767 32.9462 40.3525C33.2739 39.5281 33.1101 38.8068 32.8644 38.1886C32.6187 37.5704 30.6532 31.4911 29.834 29.0182C29.0363 26.6098 28.226 26.9357 27.6227 26.898C27.0501 26.8621 26.3942 26.8545 25.739 26.8545C25.0838 26.8545 24.0191 27.1636 23.1181 28.4C22.2172 29.6365 19.6783 32.6246 19.6783 38.7038C19.6783 44.783 23.2 50.656 23.6915 51.4804C24.1828 52.3047 30.6219 64.7802 40.4812 70.1301C42.8261 71.4025 44.6568 72.1624 46.0842 72.732C48.4387 73.6717 50.5813 73.5391 52.2748 73.2212C54.1631 72.8666 58.0897 70.2332 58.9088 67.3481C59.7278 64.4631 59.7278 61.9902 59.4821 61.475C59.2365 60.9598 58.5813 60.6506 57.5985 60.0323Z" fill="#D4D0CB"/>
</svg>
